<svg width="40" height="48" viewBox="0 0 40 48" fill="none" xmlns="http://www.w3.org/2000/svg">
<path d="M19.854 13.792C17.958 13.792 15.024 11.636 11.934 11.712C7.85403 11.766 4.11403 14.078 2.01203 17.74C-2.22197 25.09 0.920026 35.946 5.05003 41.92C7.07603 44.828 9.46603 48.1 12.634 47.998C15.674 47.868 16.814 46.024 20.504 46.024C24.166 46.024 25.204 47.998 28.424 47.92C31.698 47.868 33.776 44.96 35.776 42.024C38.088 38.648 39.048 35.374 39.1 35.194C39.022 35.168 32.736 32.752 32.66 25.48C32.608 19.4 37.62 16.492 37.854 16.362C34.996 12.182 30.608 11.714 29.074 11.61C25.074 11.298 21.724 13.792 19.854 13.792ZM26.61 7.66C28.296 5.636 29.41 2.806 29.1 0C26.686 0.104 23.776 1.61 22.036 3.636C20.476 5.428 19.128 8.312 19.49 11.064C22.166 11.272 24.92 9.688 26.608 7.662" fill="black"/>
</svg>
