<svg width="37" height="36" viewBox="0 0 37 36" fill="none" xmlns="http://www.w3.org/2000/svg">
<path d="M25.4318 24.7635L26.0724 26.6747C26.159 26.9404 26.4499 27.2246 26.7174 27.3089L28.2972 27.806C29.3075 28.1245 29.445 28.9095 28.5949 29.5447L27.1596 30.6249C26.9165 30.8078 26.7419 31.2021 26.7663 31.5056L26.9066 33.1134C27.0166 34.3859 26.2951 34.7703 25.2956 33.9722L23.906 32.8605C23.655 32.6596 23.2036 32.5958 22.9018 32.7187L21.2587 33.4024C20.0824 33.8932 19.4912 33.3184 19.9484 32.1311L20.5283 30.625C20.6358 30.3402 20.5771 29.9129 20.3942 29.6698L19.314 28.2345C18.678 27.3895 19.0224 26.6726 20.0813 26.6462L21.7371 26.6058C22.0123 26.5981 22.3705 26.4056 22.5273 26.1742L23.6719 24.5151C24.2956 23.6151 25.0867 23.7268 25.4318 24.7635Z" fill="#208483"/>
<path d="M10.7078 12.5087L11.5214 14.9361C11.6314 15.2735 12.0009 15.6345 12.3406 15.7415L14.3471 16.373C15.6302 16.7775 15.8048 17.7744 14.7252 18.5812L12.9023 19.9531C12.5936 20.1854 12.3718 20.6863 12.4028 21.0717L12.5809 23.1137C12.7207 24.7298 11.8043 25.218 10.5349 24.2045L8.76994 22.7925C8.45121 22.5373 7.87794 22.4563 7.49457 22.6125L5.4077 23.4807C3.9138 24.1041 3.16283 23.374 3.74358 21.8661L4.48006 19.9532C4.61654 19.5915 4.54204 19.0488 4.3097 18.7401L2.93778 16.9172C2.13012 15.844 2.56743 14.9334 3.91235 14.8999L6.0153 14.8486C6.36487 14.8388 6.81984 14.5943 7.01898 14.3005L8.47271 12.1932C9.26474 11.0502 10.2696 11.1921 10.7078 12.5087Z" fill="#208483"/>
<path d="M28.1844 4.32026L29.1861 7.30888C29.3216 7.72435 29.7765 8.16874 30.1947 8.30057L32.6652 9.07802C34.245 9.57605 34.46 10.8035 33.1307 11.7968L30.8863 13.486C30.5062 13.772 30.2331 14.3887 30.2712 14.8632L30.4906 17.3774C30.6627 19.3672 29.5344 19.9683 27.9715 18.7204L25.7984 16.9819C25.406 16.6677 24.7001 16.568 24.2281 16.7603L21.6587 17.8292C19.8194 18.5968 18.8948 17.6979 19.6098 15.8414L20.5166 13.4862C20.6846 13.0407 20.5929 12.3726 20.3068 11.9925L18.6177 9.74806C17.6233 8.42673 18.1617 7.30562 19.8176 7.26437L22.4068 7.20118C22.8372 7.18914 23.3974 6.88805 23.6426 6.52632L25.4324 3.93178C26.4076 2.52451 27.6448 2.69915 28.1844 4.32026Z" fill="#208483"/>
</svg>
