<svg width="1095" height="100" viewBox="0 0 1095 100" fill="none" xmlns="http://www.w3.org/2000/svg">
<g clip-path="url(#clip0_2177_26934)">
<rect width="1095" height="100" rx="24" fill="#093F46"/>
<path d="M1080.34 10.4707L1081.84 14.9466C1082.04 15.5688 1082.72 16.2344 1083.35 16.4318L1087.05 17.5962C1089.42 18.342 1089.74 20.1804 1087.75 21.668L1084.39 24.1977C1083.82 24.6261 1083.41 25.5496 1083.46 26.2603L1083.79 30.0257C1084.05 33.0057 1082.36 33.9059 1080.02 32.037L1076.77 29.4334C1076.18 28.9628 1075.12 28.8136 1074.41 29.1014L1070.57 30.7024C1067.81 31.852 1066.43 30.5057 1067.5 27.7253L1068.86 24.198C1069.11 23.5309 1068.97 22.5303 1068.54 21.961L1066.01 18.5996C1064.52 16.6208 1065.33 14.9417 1067.81 14.8799L1071.69 14.7853C1072.33 14.7673 1073.17 14.3164 1073.54 13.7746L1076.22 9.88891C1077.68 7.78132 1079.53 8.04288 1080.34 10.4707Z" fill="white"/>
<path d="M1056.79 13.8755L1057.92 17.2294C1058.07 17.6957 1058.58 18.1944 1059.05 18.3423L1061.82 19.2148C1063.6 19.7737 1063.84 21.1512 1062.34 22.266L1059.83 24.1616C1059.4 24.4826 1059.09 25.1746 1059.14 25.7071L1059.38 28.5287C1059.58 30.7617 1058.31 31.4362 1056.56 30.0358L1054.12 28.0849C1053.68 27.7322 1052.88 27.6204 1052.35 27.8361L1049.47 29.0357C1047.41 29.8972 1046.37 28.8883 1047.17 26.8049L1048.19 24.1618C1048.38 23.6619 1048.27 22.9121 1047.95 22.4855L1046.06 19.9668C1044.94 18.4839 1045.55 17.2258 1047.4 17.1795L1050.31 17.1086C1050.79 17.095 1051.42 16.7572 1051.7 16.3512L1053.71 13.4395C1054.8 11.8602 1056.19 12.0562 1056.79 13.8755Z" fill="white"/>
<path d="M1073.36 34.4297L1074.24 37.0705C1074.36 37.4376 1074.77 37.8302 1075.13 37.9467L1077.32 38.6337C1078.71 39.0737 1078.9 40.1583 1077.73 41.036L1075.75 42.5286C1075.41 42.7813 1075.17 43.3262 1075.2 43.7455L1075.4 45.967C1075.55 47.7253 1074.55 48.2563 1073.17 47.1537L1071.25 45.6176C1070.9 45.3399 1070.28 45.2519 1069.86 45.4217L1067.59 46.3663C1065.97 47.0445 1065.15 46.2502 1065.78 44.6098L1066.58 42.5287C1066.73 42.1352 1066.65 41.5448 1066.4 41.2089L1064.91 39.2257C1064.03 38.0582 1064.5 37.0676 1065.97 37.0311L1068.25 36.9753C1068.63 36.9647 1069.13 36.6986 1069.35 36.379L1070.93 34.0865C1071.79 32.843 1072.88 32.9973 1073.36 34.4297Z" fill="white"/>
<g style="mix-blend-mode:screen" opacity="0.8" filter="url(#filter0_f_2177_26934)">
<circle cx="952" cy="114" r="241" fill="#38818B"/>
</g>
</g>
<defs>
<filter id="filter0_f_2177_26934" x="518.9" y="-319.1" width="866.2" height="866.2" filterUnits="userSpaceOnUse" color-interpolation-filters="sRGB">
<feFlood flood-opacity="0" result="BackgroundImageFix"/>
<feBlend mode="normal" in="SourceGraphic" in2="BackgroundImageFix" result="shape"/>
<feGaussianBlur stdDeviation="96.05" result="effect1_foregroundBlur_2177_26934"/>
</filter>
<clipPath id="clip0_2177_26934">
<rect width="1095" height="100" rx="24" fill="white"/>
</clipPath>
</defs>
</svg>
