<?xml version="1.0" encoding="UTF-8"?>
<svg id="Layer_2" data-name="Layer 2" xmlns="http://www.w3.org/2000/svg" viewBox="0 0 639.89 185.65">
  <defs>
    <style>
      .cls-1 {
        fill: #584abc;
      }

      .cls-1, .cls-2, .cls-3 {
        stroke-width: 0px;
      }

      .cls-2 {
        fill: #0c0c0c;
      }

      .cls-3, .cls-4 {
        fill: #8a72fc;
      }

      .cls-4 {
        font-family: Comfortaa, Comfortaa;
        font-size: 61.6px;
      }
    </style>
  </defs>
  <g id="Layer_1-2" data-name="Layer 1">
    <g>
      <path class="cls-2" d="M639.76,70.84c-.82-11.2-5.29-20.86-13.38-28.95-2.33-2.35-4.79-4.4-7.38-6.14-7.35-4.93-15.78-7.39-25.28-7.39-.53,0-1.07.01-1.59.01-.4.01-.78.03-1.19.05-.05,0-.11,0-.16.01-11.69.63-21.65,5.12-29.88,13.44-9.01,9.01-13.51,19.94-13.51,32.81s4.5,23.81,13.51,32.82c8.91,9.01,19.85,13.52,32.82,13.52,11.25,0,20.99-3.45,29.22-10.36.59-.49,1.17-1,1.74-1.54.58-.53,1.13-1.07,1.7-1.63,9.01-9.01,13.51-19.96,13.51-32.82,0-1.31-.04-2.59-.13-3.86ZM613.56,96.54c-5.43,5.57-12.19,8.36-20.27,8.36s-14.63-2.79-20.06-8.36c-5.7-5.72-8.56-12.47-8.56-20.27s2.74-14.54,8.2-19.9c.39-.44.82-.88,1.27-1.29,5.26-5.39,11.8-8.09,19.62-8.09s14.16,2.7,19.42,8.09c2.53,2.4,4.49,5.08,5.84,8.02,2.08,3.91,3.11,8.31,3.11,13.17,0,7.79-2.84,14.55-8.56,20.27Z"/>
      <path class="cls-2" d="M538.2,71.99c-.82-11.2-5.29-20.86-13.38-28.95-2.33-2.35-4.79-4.4-7.38-6.14-7.35-4.93-15.78-7.39-25.28-7.39-.53,0-1.07.01-1.59.01-.4.01-.78.03-1.19.05-.05,0-.11,0-.16.01-11.69.63-21.65,5.12-29.88,13.44-9.01,9.01-13.51,19.94-13.51,32.8s4.5,23.81,13.51,32.82c8.91,9.01,19.85,13.52,32.82,13.52,11.25,0,20.99-3.45,29.22-10.36.59-.49,1.17-1,1.74-1.54.58-.53,1.13-1.07,1.7-1.63,9.01-9.01,13.51-19.96,13.51-32.82,0-1.31-.04-2.59-.13-3.86ZM512,97.69c-5.43,5.57-12.19,8.36-20.27,8.36s-14.63-2.79-20.06-8.36c-5.7-5.72-8.56-12.47-8.56-20.27s2.74-14.54,8.2-19.9c.39-.45.82-.88,1.27-1.29,5.26-5.39,11.8-8.09,19.62-8.09s14.16,2.7,19.42,8.09c2.53,2.4,4.49,5.08,5.84,8.02,2.08,3.91,3.11,8.31,3.11,13.17,0,7.79-2.84,14.55-8.56,20.27Z"/>
      <g>
        <path class="cls-2" d="M55.24,101.96c-7.16-1.28-17.68-5-24.38-11.38-7.85-8.21-11.81-17.66-11.91-28.37-.01.13-.01.28-.01.42,0,1.4.03,2.67.13,3.86.12,1.19.26,2.39.44,3.56,1.6,8.32,5.38,15.45,11.34,21.38,5.95,5.56,12.19,7.7,18.74,9.49,1.17.38,4.06.86,6.49,1.23.13.03.27.04.4.05l-1.25-.24ZM71.72,0l-12.9.15c-7.67.08-15.33,1.58-22.46,4.85-1.42.65-2.79,1.36-4.13,2.12-5.16,2.8-9.87,6.36-14.13,10.65-4.41,4.45-7.87,9.11-10.37,14C3.47,39.22,1,47.41.26,56.29c.32-3.51.9-6.9,1.77-10.21.12-.47.24-.94.39-1.4.12-.47.27-.93.42-1.39.13-.46.28-.92.44-1.36.31-.9.65-1.81,1-2.71.35-.89.73-1.78,1.13-2.66.93-2.06,2-4.09,3.18-6.05.23-.39.47-.78.71-1.16.24-.39.49-.78.74-1.16.26-.39.51-.77.78-1.16.26-.38.53-.75.81-1.13.27-.38.55-.76.84-1.13,1.09-1.44,2.27-2.86,3.51-4.26.26-.28.51-.58.78-.86.43-.47.88-.94,1.33-1.42C28.1,8.44,39.43,2.67,52.09.89c1.62-.26,17.19-.8,19.81-.88-.05-.01-.12-.01-.18-.01ZM72.59,124.36c-.24.01-.46.04-.7.05.23.01.36.01.36.01.32,0,.63-.03.94-.08,1.16-.22,2.09-1.38,2.09-2.55v-.51c-.07,2.12-2.18,3.06-2.7,3.07Z"/>
        <path class="cls-2" d="M75.29,116.25v1.81s0,3.18,0,3.2v.03c-.07,2.12-2.18,3.06-2.7,3.07-.24.01-.46.04-.7.05-2.62-.08-18.19-.61-19.81-.88-12.66-1.78-23.99-7.55-33.99-17.33-1.71-1.77-3.3-3.57-4.76-5.43-.3-.36-.58-.74-.86-1.12-.28-.36-.57-.74-.84-1.12-2.48-3.41-4.54-6.96-6.23-10.67-.38-.82-.73-1.64-1.07-2.48-.38-.96-.73-1.91-1.07-2.89-.15-.46-.31-.92-.44-1.38-.3-.92-.57-1.85-.81-2.78-.61-2.35-1.08-4.73-1.42-7.19-.05-.34-.09-.69-.13-1.03-.08-.66-.15-1.33-.22-2.01-.12-1.47-.2-2.95-.24-4.46-.01-.55-.01-1.11-.01-1.67,0-.42,0-.82.01-1.24,0-.51.03-1.01.05-1.52H.07c.03-.51.05-1.01.08-1.51v-.03c.03-.47.07-.94.11-1.4.32-3.51.9-6.9,1.77-10.21.12-.47.26-.94.39-1.4.13-.46.27-.93.42-1.39.13-.46.3-.92.44-1.36.31-.9.65-1.81,1-2.71.35-.9.73-1.78,1.13-2.66.93-2.06,2-4.09,3.18-6.05.23-.39.47-.78.71-1.16.24-.39.49-.78.74-1.16.26-.39.51-.77.78-1.16.26-.38.53-.75.81-1.13.27-.38.55-.76.84-1.13,1.09-1.44,2.27-2.86,3.51-4.26.26-.28.51-.58.78-.86.43-.47.88-.94,1.33-1.42C28.1,8.44,39.43,2.67,52.09.89c1.62-.26,17.19-.8,19.81-.88.24.01.46.04.7.05.51.03,2.63.96,2.7,3.07v.03s.01,3.2.01,3.21v1.79c-.01.09-.01.19-.03.28v.09c-.32,3.55-1.27,6.67-3.33,8.98-2.06,2.32-5.23,3.83-10,4.13-1.77.11-3.53.28-5.3.54-.19.03-.36.05-.55.08-2.43.36-5.31.85-6.49,1.23-6.55,1.79-12.8,3.94-18.74,9.49-5.96,5.93-9.73,13.07-11.34,21.38-.19,1.17-.32,2.37-.44,3.56-.11,1.2-.13,2.47-.13,3.86,0,.13,0,.28.01.42-.01.13-.01.28-.01.42,0,1.4.03,2.67.13,3.86.12,1.19.26,2.39.44,3.56,1.6,8.32,5.38,15.45,11.34,21.38,5.95,5.56,12.19,7.7,18.74,9.49,1.17.38,4.06.86,6.49,1.23.13.03.27.04.4.05,1.81.27,3.63.46,5.45.57,4.77.3,7.94,1.81,10,4.13,2.06,2.31,3.01,5.43,3.33,8.98v.09c.01.09.01.19.01.28Z"/>
      </g>
      <g>
        <path class="cls-2" d="M329.31,73.23c-.01-.49-.04-.97-.08-1.44-.82-11.2-5.29-20.86-13.38-28.95-1.96-1.97-3.99-3.72-6.12-5.26-.42-.3-.84-.59-1.25-.88-7.35-4.94-15.78-7.39-25.28-7.39-.53,0-1.07.01-1.59.01-.4.01-.78.03-1.19.05-.05,0-.11,0-.16.01-11.69.63-21.65,5.12-29.88,13.44-9.01,9.01-13.51,19.94-13.51,32.81s4.5,23.81,13.51,32.82c8.91,9.01,19.85,13.52,32.82,13.52,11.25,0,20.99-3.45,29.22-10.36.59-.49,1.17-1,1.74-1.54.58-.53,1.13-1.07,1.7-1.63,6.84-6.84,11.08-14.8,12.71-23.88.4-2.12.65-4.3.74-6.55.04-.78.05-1.58.05-2.39s-.01-1.62-.05-2.41ZM307.55,91.82c-1.23,1.98-2.74,3.88-4.52,5.66-1.69,1.73-3.51,3.2-5.46,4.38-4.3,2.63-9.22,3.95-14.78,3.95-7.94,0-14.63-2.79-20.06-8.36-5.7-5.72-8.56-12.47-8.56-20.27,0-5.43,1.29-10.26,3.88-14.51,1.16-1.9,2.59-3.69,4.29-5.37t.03-.03c.12-.13.24-.24.36-.36,5.43-5.57,12.12-8.36,20.06-8.36s14.83,2.79,20.27,8.36c2.05,1.96,3.73,4.07,5.04,6.36.13.24.27.49.4.73,2.08,3.91,3.11,8.31,3.11,13.17,0,5.37-1.35,10.25-4.07,14.63Z"/>
        <path class="cls-2" d="M328.82,1.58h-8.55c-1.97,0-3.71.23-5.22.67-3.02.89-5.03,3.76-5.03,6.9l-.28,28.42v.43l-2.52-1.46c-5.31-3.15,8.24,26.94,17.8,42.63,1.18,1.94,4.2,1.19,4.3-1.08,0-.02,0-.05,0-.07V2.81c0-.47-.19-.9-.5-1.23Z"/>
      </g>
      <g>
        <g>
          <path class="cls-2" d="M421.73,138.68v.04c-.44.63-.86,1.25-1.33,1.88-.01.03-.03.04-.04.07-.01.03-.03.05-.04.07-.84,1.13-1.77,2.27-2.79,3.34-.19.22-.39.43-.59.65-.12.12-.24.26-.36.36-.26.26-.53.51-.8.78-1.28,1.23-2.68,2.35-4.19,3.36-.39.26-.78.53-1.2.78-.13.09-.26.16-.4.24-2.24,1.38-4.92,2.66-8.05,3.6-11.78,3.63-26.13,3.34-38.18-3.01-.69-.36-1.35-.74-1.98-1.16-.3-.18-.58-.38-.86-.57-.03-.01-.05-.03-.08-.05-.28-.2-.57-.4-.84-.61-.3-.22-.59-.45-.88-.67-.28-.22-.57-.46-.84-.69-.22-.18-.42-.36-.62-.54-1.07-.94-2.05-1.96-2.98-3.01-.81-.93-1.56-1.87-2.27-2.83-.36-.5-.7-.98-1.04-1.48-.13-.2-.27-.4-.4-.62-1.79-2.76-3.17-5.51-4.15-7.9h0c-.72-1.75.56-3.67,2.45-3.67h7.72c.73,0,1.47.05,2.19.17.04,0,.07.01.11.02,1.52.27,2.88,1.09,3.89,2.26,0,0,.01.01.02.02.24.28.51.59.8.9.22.24.46.5.71.76.01.01.03.03.04.04.42.43.86.86,1.35,1.31,1.59,1.44,3.56,2.93,6,4.14,0,0,.01.01.03.01,3.38,1.67,7.65,2.83,13.01,2.67.88-.03,1.7-.07,2.49-.12h.01c5.42.16,9.73-1.02,13.13-2.72t.03-.01c2.28-1.16,4.15-2.54,5.69-3.9.76-.67,1.43-1.35,2.02-1.98h.01c1.11-.3,2.86.39,4.89,1.63,2.56,1.56,5.57,4,8.32,6.45Z"/>
          <path class="cls-2" d="M426.39,129.64c-1.01,2.64-2.55,5.84-4.67,9.03-.12.19-.24.39-.38.58-.31.44-.62.89-.96,1.33-.01.03-.03.04-.04.07-.01.03-.03.05-.04.07-.84,1.13-1.77,2.27-2.79,3.34-.19.22-.39.43-.59.65-.12.12-.24.26-.36.36-.26.26-.53.51-.8.78-1.28,1.23-2.68,2.35-4.19,3.36-.39.26-.78.53-1.2.78-.13.09-.26.16-.4.24-2.24,1.38-4.92,2.66-8.05,3.6-11.78,3.63-26.13,3.34-38.18-3.01-.69-.36-1.35-.74-1.98-1.16-.3-.18-.58-.38-.86-.57-.03-.01-.05-.03-.08-.05-.28-.2-.57-.4-.84-.61-.3-.22-.59-.45-.88-.67-.28-.22-.57-.46-.84-.69-.22-.18-.42-.36-.62-.54-1.07-.94-2.05-1.96-2.98-3.01-.81-.93-1.56-1.87-2.27-2.83-.51-.7-.97-1.37-1.44-2.09h0c2.91-2.58,6.11-5.16,8.78-6.73,1.01-.61,1.96-1.05,2.76-1.29.78-.24,1.62,0,2.2.57.01.01.03.03.04.04.42.43.86.86,1.35,1.31,1.59,1.44,3.56,2.93,6,4.14,0,0,.01.01.03.01,3.38,1.67,7.65,2.83,13.01,2.67.88-.03,1.7-.07,2.49-.12h.01c5.42.16,9.73-1.02,13.13-2.72t.03-.01c2.28-1.16,4.15-2.54,5.69-3.9.76-.67,1.43-1.35,2.02-1.98h.01c.34-.38.66-.74.94-1.08,0,0,.01-.01.02-.02,1.12-1.28,2.64-2.15,4.32-2.42.5-.08.88-.12,1.05-.13.08-.01.15-.01.22-.01h9.49c1.39,0,2.34,1.39,1.85,2.68v.03Z"/>
        </g>
        <path class="cls-2" d="M439.89,40.61c-.38-.69-.89-1.35-1.5-1.97,0-.04-.49-.51-1.17-1.15-.98-.89-2.36-2.1-3.22-2.79-3.45-2.75-8.31-2.78-11.77-.05-.49.39-2.67,2.58-3.48,3.03-.01,0-.03,0-.03.01-.85.46-1.83.71-2.86.71-.78,0-1.51-.15-2.18-.42-.68-.26-3.72-2.54-4.75-3.13-6.69-3.82-14.22-5.73-22.59-5.73-.53,0-1.07.01-1.59.01-.4.01-.78.03-1.19.05-.05,0-.11,0-.16.01-11.69.63-21.65,5.12-29.88,13.44-9.01,9.01-13.51,19.94-13.51,32.81s4.5,23.81,13.51,32.82c8.91,9.01,19.85,13.52,32.82,13.52,11.25,0,20.99-3.45,29.22-10.36.59-.49,1.17-1,1.74-1.54.58-.53,1.13-1.06,1.7-1.63,9.01-9.01,13.51-19.96,13.51-32.82,0-1.31-.04-2.59-.13-3.86-.22-2.97-.69-5.84-1.43-8.59-.04-.13-.08-.28-.12-.43-.09-.43-.15-.89-.15-1.35,0-1.81.81-3.44,2.08-4.53.05-.05.11-.09.16-.15.63-.59,1.2-1.11,1.6-1.51.23-.23,2.01-2.05,3.63-4.11.44-.55.86-1.12,1.24-1.68.59-.87,1.07-1.83,1.29-2.86.12-.58.19-1.17.19-1.78,0-1.44-.35-2.8-.97-4ZM405.04,95.53c-5.65,5.66-12.34,8.49-20.05,8.49s-14.68-2.83-20.06-8.49c-2.06-2.01-3.75-4.21-5.04-6.58-.04-.04-.05-.09-.07-.15-2.1-3.94-3.16-8.37-3.16-13.31,0-7.87,2.75-14.55,8.27-20.08,5.51-5.5,12.2-8.27,20.06-8.27,4.18,0,8.1.85,11.73,2.52,2.95,1.38,5.72,3.28,8.32,5.74,5.51,5.8,8.27,12.49,8.27,20.08s-2.75,14.53-8.27,20.04Z"/>
      </g>
      <text class="cls-4" transform="translate(438.22 172.48)"><tspan x="0" y="0">cloud</tspan></text>
      <g>
        <path class="cls-1" d="M133.89,51.37c-1.9-1.31-13.49-8.99-27.87-5.38-9.7,2.44-22.03,10.36-24.08,24.33-1.61,10.97,3.64,22.17,13.32,28.81"/>
        <path class="cls-3" d="M95.26,99.14h104.76c1.39-.97,18.67-13.43,17.8-33.04-.86-19.36-18.78-31.51-32.53-35.09-18.59-4.83-39.34,3.47-51.87,21l-38.16,47.13Z"/>
      </g>
    </g>
  </g>
</svg>