<?xml version="1.0" encoding="UTF-8"?>
<svg id="Layer_2" data-name="Layer 2" xmlns="http://www.w3.org/2000/svg" xmlns:xlink="http://www.w3.org/1999/xlink" viewBox="0 0 640.6 179.04">
  <defs>
    <style>
      .cls-1 {
        fill: #e00a48;
      }

      .cls-1, .cls-2, .cls-3, .cls-4, .cls-5 {
        stroke-width: 0px;
      }

      .cls-2 {
        fill: url(#linear-gradient);
      }

      .cls-3, .cls-6 {
        fill: #f8d20d;
      }

      .cls-4 {
        fill: #0c0c0c;
      }

      .cls-5 {
        fill: url(#linear-gradient-2);
      }

      .cls-6 {
        font-family: Comfortaa, Comfortaa;
        font-size: 43.75px;
      }
    </style>
    <linearGradient id="linear-gradient" x1="174.31" y1="50.64" x2="197.54" y2="84.74" gradientUnits="userSpaceOnUse">
      <stop offset="0" stop-color="#c4a110" stop-opacity=".4"/>
      <stop offset=".65" stop-color="#000" stop-opacity="0"/>
    </linearGradient>
    <linearGradient id="linear-gradient-2" x1="113.65" y1="110.43" x2="97.27" y2="85.66" gradientUnits="userSpaceOnUse">
      <stop offset="0" stop-color="#c4a110" stop-opacity=".4"/>
      <stop offset=".74" stop-color="#000" stop-opacity="0"/>
    </linearGradient>
  </defs>
  <g id="Layer_1-2" data-name="Layer 1">
    <g>
      <g>
        <g>
          <path class="cls-3" d="M127.76,35.16l-12.67-.07c-4.56-.03-8.77,2.44-10.98,6.44l-10.17,18.43c-7.7,13.94-7.71,30.85-.04,44.81l11.74,21.34,16.15-30.15-4.71-7.69c-2.09-3.42-2.17-7.7-.19-11.19l17.36-30.73c2.81-4.98-.76-11.14-6.48-11.17Z"/>
          <path class="cls-3" d="M139.57,122.32l46.13-82.76h0c-1.64-2.82-4.65-4.56-7.91-4.58l-14.92-.1c-4.53-.03-8.71,2.41-10.91,6.37l-46.74,84.13h0c1.53,2.7,4.4,4.37,7.5,4.37l14.14.02c5.27,0,10.14-2.84,12.71-7.45Z"/>
          <path class="cls-1" d="M156.28,119.7l17.59-31.14c2.07-3.66,2.08-8.13.04-11.8l-4.47-8.04,16.26-29.17,9.61,17.2c8.84,15.83,8.88,35.1.1,50.96l-9.2,16.64c-1.73,3.13-5,5.1-8.58,5.16l-15.33.28c-5.24.09-8.59-5.54-6.02-10.1Z"/>
          <path class="cls-2" d="M177.19,82.67l-7.75-13.95,16.26-29.17,22.1,39.58h0c1.53,2.77-.65,6.12-3.8,5.84l-26.82-2.31Z"/>
          <path class="cls-5" d="M84.64,87.93l20.99,38.16,16.15-30.15-8.09-13.23s-30.96,1.74-29.04,5.22Z"/>
        </g>
        <path class="cls-4" d="M639.75,74.63c-.87-11.8-5.57-21.97-14.09-30.5-2.46-2.47-5.04-4.63-7.77-6.46-7.74-5.2-16.62-7.78-26.63-7.78-.55,0-1.12.01-1.68.01-.43.01-.82.03-1.25.06-.06,0-.11,0-.17.01-12.31.67-22.81,5.4-31.48,14.16-9.49,9.49-14.23,21.01-14.23,34.56s4.74,25.08,14.23,34.57c9.39,9.49,20.91,14.25,34.57,14.25,11.85,0,22.12-3.64,30.78-10.91.62-.51,1.24-1.05,1.83-1.62.61-.55,1.19-1.12,1.79-1.72,9.49-9.49,14.23-21.02,14.23-34.57,0-1.38-.04-2.73-.14-4.06ZM612.15,101.7c-5.72,5.87-12.84,8.81-21.35,8.81s-15.41-2.94-21.14-8.81c-6.01-6.02-9.02-13.14-9.02-21.35s2.88-15.31,8.64-20.96c.41-.47.87-.92,1.34-1.36,5.54-5.68,12.43-8.52,20.67-8.52s14.91,2.84,20.45,8.52c2.67,2.53,4.73,5.35,6.15,8.45,2.19,4.12,3.28,8.75,3.28,13.88,0,8.21-3,15.33-9.02,21.35Z"/>
        <path class="cls-4" d="M532.77,75.84c-.87-11.8-5.57-21.97-14.09-30.5-2.46-2.47-5.04-4.63-7.77-6.46-7.74-5.2-16.62-7.78-26.63-7.78-.55,0-1.12.01-1.68.01-.43.01-.82.03-1.25.06-.06,0-.11,0-.17.01-12.31.67-22.81,5.4-31.48,14.16-9.49,9.49-14.23,21.01-14.23,34.56s4.74,25.08,14.23,34.57c9.39,9.49,20.91,14.25,34.57,14.25,11.85,0,22.12-3.64,30.78-10.91.62-.51,1.24-1.05,1.83-1.62.61-.55,1.19-1.12,1.79-1.72,9.49-9.49,14.23-21.02,14.23-34.57,0-1.38-.04-2.73-.14-4.06ZM505.17,102.91c-5.72,5.87-12.84,8.81-21.35,8.81s-15.41-2.94-21.14-8.81c-6.01-6.02-9.02-13.14-9.02-21.35s2.88-15.31,8.64-20.96c.41-.47.87-.92,1.34-1.36,5.54-5.68,12.43-8.52,20.67-8.52s14.91,2.84,20.45,8.52c2.67,2.53,4.73,5.35,6.15,8.45,2.19,4.12,3.28,8.75,3.28,13.88,0,8.21-3,15.33-9.02,21.35Z"/>
        <g>
          <path class="cls-4" d="M58.19,107.41c-7.54-1.35-18.62-5.27-25.68-11.99-8.27-8.65-12.44-18.61-12.54-29.88-.01.14-.01.3-.01.44,0,1.48.03,2.81.14,4.06.13,1.25.27,2.51.47,3.75,1.69,8.76,5.67,16.28,11.95,22.53,6.26,5.85,12.84,8.11,19.74,10,1.24.4,4.28.91,6.83,1.29.14.03.28.04.43.06l-1.32-.26ZM75.55,0l-13.59.16c-8.08.09-16.15,1.66-23.66,5.11-1.49.68-2.94,1.43-4.35,2.23-5.44,2.95-10.4,6.7-14.89,11.22-4.64,4.69-8.3,9.6-10.92,14.74C3.65,41.32,1.05,49.94.27,59.3c.34-3.69.95-7.27,1.86-10.75.13-.5.26-.99.41-1.48.13-.5.28-.98.44-1.46.14-.48.3-.97.47-1.43.33-.95.68-1.9,1.05-2.85.37-.94.77-1.88,1.19-2.8.98-2.17,2.1-4.3,3.35-6.38.24-.41.5-.82.75-1.22.26-.41.51-.82.78-1.22.27-.41.54-.81.82-1.22.27-.4.55-.8.85-1.19.28-.4.58-.8.88-1.19,1.15-1.52,2.39-3.01,3.69-4.49.27-.3.54-.61.82-.91.45-.5.92-.99,1.41-1.49C29.6,8.89,41.53,2.81,54.87.94c1.7-.27,18.11-.84,20.87-.92-.06-.01-.13-.01-.18-.01ZM76.47,131c-.26.01-.48.04-.74.06.24.01.38.01.38.01.34,0,.67-.03.99-.09,1.22-.23,2.2-1.45,2.2-2.68v-.54c-.07,2.23-2.3,3.22-2.84,3.24Z"/>
          <path class="cls-4" d="M79.31,122.47v1.9s0,3.35,0,3.37v.03c-.07,2.23-2.3,3.22-2.84,3.24-.26.01-.48.04-.74.06-2.76-.08-19.16-.64-20.87-.92-13.34-1.88-25.27-7.95-35.81-18.25-1.8-1.86-3.48-3.76-5.01-5.72-.31-.38-.61-.78-.91-1.18-.3-.38-.6-.78-.88-1.18-2.61-3.59-4.79-7.33-6.56-11.24-.4-.87-.77-1.73-1.12-2.61-.4-1.01-.77-2.02-1.12-3.04-.16-.48-.33-.97-.47-1.45-.31-.97-.6-1.95-.85-2.93-.64-2.47-1.14-4.99-1.49-7.57-.06-.36-.1-.72-.14-1.08-.09-.7-.16-1.41-.23-2.12-.13-1.55-.21-3.11-.26-4.7-.01-.58-.01-1.16-.01-1.76,0-.44,0-.87.01-1.31,0-.54.03-1.07.06-1.6H.07c.03-.54.06-1.07.09-1.59v-.03c.03-.5.07-.99.11-1.48.34-3.69.95-7.27,1.86-10.75.13-.5.27-.99.41-1.48.14-.48.28-.98.44-1.46.14-.48.31-.97.47-1.43.33-.95.68-1.9,1.05-2.85.37-.95.77-1.88,1.19-2.8.98-2.17,2.1-4.3,3.35-6.38.24-.41.5-.82.75-1.22.26-.41.51-.82.78-1.22.27-.41.54-.81.82-1.22.27-.4.55-.8.85-1.19.28-.4.58-.8.88-1.19,1.15-1.52,2.39-3.01,3.69-4.49.27-.3.54-.61.82-.91.45-.5.92-.99,1.41-1.49C29.6,8.89,41.53,2.81,54.87.94c1.7-.27,18.11-.84,20.87-.92.26.01.48.04.74.06.54.03,2.77,1.01,2.84,3.24v.03s.01,3.37.01,3.38v1.89c-.01.1-.01.2-.03.3v.1c-.34,3.74-1.34,7.03-3.51,9.46-2.17,2.44-5.51,4.03-10.54,4.35-1.86.11-3.72.3-5.58.57-.2.03-.38.06-.58.08-2.56.38-5.6.9-6.83,1.29-6.9,1.89-13.48,4.15-19.74,10-6.28,6.25-10.26,13.76-11.95,22.53-.2,1.24-.34,2.5-.47,3.75-.11,1.26-.14,2.6-.14,4.06,0,.14,0,.3.01.44-.01.14-.01.3-.01.44,0,1.48.03,2.81.14,4.06.13,1.25.27,2.51.47,3.75,1.69,8.76,5.67,16.28,11.95,22.53,6.26,5.85,12.84,8.11,19.74,10,1.24.4,4.28.91,6.83,1.29.14.03.28.04.43.06,1.9.28,3.82.48,5.74.6,5.03.31,8.37,1.9,10.54,4.35,2.17,2.43,3.17,5.72,3.51,9.46v.1c.01.1.01.2.01.3Z"/>
        </g>
        <g>
          <path class="cls-4" d="M312.72,77.14c-.01-.51-.04-1.02-.09-1.52-.87-11.8-5.57-21.97-14.09-30.5-2.06-2.07-4.2-3.92-6.45-5.54-.44-.31-.88-.62-1.32-.92-7.74-5.2-16.62-7.78-26.63-7.78-.55,0-1.12.01-1.68.01-.43.01-.82.03-1.25.06-.06,0-.11,0-.17.01-12.31.67-22.81,5.4-31.48,14.16-9.49,9.49-14.23,21.01-14.23,34.56s4.74,25.08,14.23,34.57c9.39,9.49,20.91,14.25,34.57,14.25,11.85,0,22.12-3.64,30.78-10.91.62-.51,1.24-1.05,1.83-1.62.61-.55,1.19-1.12,1.79-1.72,7.2-7.2,11.68-15.6,13.39-25.15.43-2.23.68-4.53.78-6.9.04-.82.06-1.66.06-2.51s-.01-1.7-.06-2.54ZM289.8,96.73c-1.29,2.09-2.88,4.09-4.76,5.97-1.78,1.82-3.69,3.37-5.75,4.62-4.53,2.77-9.72,4.16-15.57,4.16-8.37,0-15.41-2.94-21.14-8.81-6.01-6.02-9.02-13.14-9.02-21.35,0-5.72,1.36-10.81,4.09-15.28,1.22-2,2.73-3.89,4.52-5.65t.03-.03c.13-.14.26-.26.38-.38,5.72-5.87,12.77-8.81,21.14-8.81s15.62,2.94,21.35,8.81c2.16,2.06,3.93,4.29,5.31,6.7.14.26.28.51.43.77,2.19,4.12,3.28,8.75,3.28,13.88,0,5.65-1.42,10.8-4.29,15.41Z"/>
          <path class="cls-4" d="M312.2,1.66h-9.01c-2.07,0-3.91.24-5.5.71-3.18.94-5.3,3.96-5.3,7.27l-.3,29.94v.45l-2.66-1.53c-5.59-3.32,8.68,28.38,18.75,44.91,1.25,2.05,4.43,1.25,4.53-1.14,0-.02,0-.05,0-.07V2.96c0-.5-.2-.95-.53-1.29Z"/>
        </g>
        <g>
          <g>
            <path class="cls-4" d="M410.07,146.09v.04c-.46.66-.91,1.32-1.41,1.98-.01.03-.03.04-.04.07-.01.03-.03.06-.04.07-.88,1.19-1.86,2.39-2.94,3.52-.2.23-.41.45-.62.68-.13.13-.26.27-.38.38-.27.27-.55.54-.84.82-1.35,1.29-2.83,2.47-4.42,3.54-.41.27-.82.55-1.26.82-.14.1-.27.17-.43.26-2.36,1.45-5.18,2.8-8.48,3.79-12.41,3.82-27.53,3.52-40.23-3.17-.72-.38-1.42-.78-2.09-1.22-.31-.18-.61-.4-.91-.6-.03-.01-.06-.03-.09-.06-.3-.21-.6-.43-.88-.64-.31-.23-.62-.47-.92-.71-.3-.23-.6-.48-.88-.72-.23-.18-.44-.38-.65-.57-1.12-.99-2.16-2.06-3.14-3.17-.85-.98-1.65-1.97-2.39-2.98-.38-.53-.74-1.04-1.09-1.56-.14-.21-.28-.43-.43-.65-1.89-2.91-3.34-5.81-4.37-8.32h0c-.76-1.84.59-3.86,2.58-3.86h8.13c.77,0,1.55.05,2.31.18.04,0,.08.01.12.02,1.6.28,3.04,1.15,4.1,2.38,0,0,.01.01.02.02.26.3.54.62.84.95.23.26.48.53.75.8.01.01.03.03.04.04.44.45.91.91,1.42,1.38,1.68,1.52,3.75,3.08,6.32,4.36,0,0,.01.01.03.01,3.57,1.76,8.05,2.98,13.71,2.81.92-.03,1.79-.07,2.63-.13h.01c5.71.17,10.26-1.08,13.83-2.87t.03-.01c2.4-1.22,4.37-2.67,5.99-4.11.8-.71,1.51-1.42,2.13-2.09h.01c1.16-.31,3.01.41,5.16,1.72,2.7,1.65,5.87,4.22,8.76,6.79Z"/>
            <path class="cls-4" d="M414.99,136.57c-1.07,2.78-2.68,6.15-4.91,9.52-.13.2-.26.41-.4.61-.33.47-.65.94-1.01,1.41-.01.03-.03.04-.04.07-.01.03-.03.06-.04.07-.88,1.19-1.86,2.39-2.94,3.52-.2.23-.41.45-.62.68-.13.13-.26.27-.38.38-.27.27-.55.54-.84.82-1.35,1.29-2.83,2.47-4.42,3.54-.41.27-.82.55-1.26.82-.14.1-.27.17-.43.26-2.36,1.45-5.18,2.8-8.48,3.79-12.41,3.82-27.53,3.52-40.23-3.17-.72-.38-1.42-.78-2.09-1.22-.31-.18-.61-.4-.91-.6-.03-.01-.06-.03-.09-.06-.3-.21-.6-.43-.88-.64-.31-.23-.62-.47-.92-.71-.3-.23-.6-.48-.88-.72-.23-.18-.44-.38-.65-.57-1.12-.99-2.16-2.06-3.14-3.17-.85-.98-1.65-1.97-2.39-2.98-.54-.74-1.02-1.44-1.52-2.2h0c3.07-2.71,6.43-5.44,9.25-7.09,1.07-.64,2.06-1.11,2.91-1.36.82-.26,1.7,0,2.32.6.01.01.03.03.04.04.44.45.91.91,1.42,1.38,1.68,1.52,3.75,3.08,6.32,4.36,0,0,.01.01.03.01,3.57,1.76,8.05,2.98,13.71,2.81.92-.03,1.79-.07,2.63-.13h.01c5.71.17,10.26-1.08,13.83-2.87t.03-.01c2.4-1.22,4.37-2.67,5.99-4.11.8-.71,1.51-1.42,2.13-2.09h.01c.36-.4.7-.78.99-1.14,0,0,.01-.01.02-.02,1.18-1.35,2.78-2.27,4.56-2.55.53-.08.92-.12,1.11-.14.09-.01.16-.01.23-.01h10c1.46,0,2.47,1.46,1.95,2.83v.03Z"/>
          </g>
          <path class="cls-4" d="M429.21,42.78c-.4-.72-.94-1.42-1.58-2.07,0-.04-.51-.54-1.24-1.21-1.04-.94-2.49-2.22-3.39-2.94-3.64-2.9-8.75-2.93-12.4-.06-.51.41-2.81,2.71-3.66,3.2-.01,0-.03,0-.03.01-.89.48-1.93.75-3.01.75-.82,0-1.59-.16-2.3-.44-.71-.28-3.92-2.68-5.01-3.3-7.05-4.03-14.98-6.03-23.8-6.03-.55,0-1.12.01-1.68.01-.43.01-.82.03-1.25.06-.06,0-.11,0-.17.01-12.31.67-22.81,5.4-31.48,14.16-9.49,9.49-14.23,21.01-14.23,34.56s4.74,25.08,14.23,34.57c9.39,9.49,20.91,14.25,34.57,14.25,11.85,0,22.12-3.64,30.78-10.91.62-.51,1.24-1.05,1.83-1.62.61-.55,1.19-1.12,1.79-1.72,9.49-9.49,14.23-21.02,14.23-34.57,0-1.38-.04-2.73-.14-4.06-.23-3.12-.72-6.15-1.51-9.05-.04-.14-.09-.3-.13-.45-.1-.45-.16-.94-.16-1.42,0-1.9.85-3.62,2.19-4.77.06-.06.11-.1.17-.16.67-.62,1.26-1.16,1.69-1.59.24-.24,2.12-2.16,3.82-4.33.46-.58.91-1.18,1.31-1.77.62-.92,1.13-1.93,1.36-3.01.13-.61.2-1.24.2-1.88,0-1.52-.37-2.95-1.02-4.22ZM392.49,100.64c-5.95,5.97-13,8.95-21.12,8.95s-15.47-2.98-21.14-8.95c-2.17-2.12-3.95-4.43-5.31-6.93-.04-.04-.06-.1-.07-.16-2.22-4.15-3.32-8.82-3.32-14.02,0-8.3,2.9-15.33,8.71-21.15,5.81-5.8,12.85-8.71,21.14-8.71,4.4,0,8.54.89,12.36,2.66,3.11,1.45,6.02,3.45,8.76,6.05,5.81,6.11,8.71,13.15,8.71,21.15s-2.9,15.31-8.71,21.11Z"/>
        </g>
      </g>
      <text class="cls-6" transform="translate(430.23 169.68)"><tspan x="0" y="0">software</tspan></text>
    </g>
  </g>
</svg>