<svg width="1149" height="305" viewBox="0 0 1149 305" fill="none" xmlns="http://www.w3.org/2000/svg">
<rect x="53.4043" y="32.9277" width="1095" height="272" rx="42" fill="black"/>
<g style="mix-blend-mode:plus-lighter">
<g filter="url(#filter0_f_1533_19333)">
<path d="M27.1384 56.6471C53.9919 39.8764 79.807 26.9007 114.15 21.918C141.216 17.9909 169.654 19.6164 196.788 26.0434C279.031 45.5239 331.201 112.951 397.276 153.678C430.189 173.966 470.67 185.906 510.774 185.329C553.798 184.709 598.747 173.451 639.305 164.068C683.671 153.804 727.037 141.694 771.795 132.296C793.637 127.709 814.645 121.022 836.361 116.441C854.296 112.657 875.2 116.981 893.41 119.503C917.666 122.863 943.011 125.315 966.581 131.93C982.327 136.348 998.709 142.275 1013.29 149.167C1019.92 152.296 1025.22 156.789 1031.78 159.996C1050.27 169.047 1067.13 174.017 1087.61 177.047" stroke="#E00A48" stroke-width="4" stroke-linecap="round"/>
</g>
<g style="mix-blend-mode:plus-lighter">
<path d="M27.1384 56.6471C53.9919 39.8764 79.807 26.9007 114.15 21.918C141.216 17.9909 169.654 19.6164 196.788 26.0434C279.031 45.5239 331.201 112.951 397.276 153.678C430.189 173.966 470.67 185.906 510.774 185.329C553.798 184.709 598.747 173.451 639.305 164.068C683.671 153.804 727.037 141.694 771.795 132.296C793.637 127.709 814.645 121.022 836.361 116.441C854.296 112.657 875.2 116.981 893.41 119.503C917.666 122.863 943.011 125.315 966.581 131.93C982.327 136.348 998.709 142.275 1013.29 149.167C1019.92 152.296 1025.22 156.789 1031.78 159.996C1050.27 169.047 1067.13 174.017 1087.61 177.047" stroke="#E00A48" stroke-width="2" stroke-linecap="round"/>
</g>
<g filter="url(#filter1_f_1533_19333)">
<path d="M23.1143 92.5002C50.7903 77.3663 77.0894 65.9375 110.88 62.9087C137.511 60.5216 164.932 63.7165 190.619 71.5996C268.48 95.4935 312.505 165.254 372.616 209.315C402.559 231.263 440.653 245.356 479.602 247.016C521.386 248.796 566.074 240.136 606.321 233.09C650.346 225.383 693.582 215.789 737.903 208.962C759.531 205.63 780.556 200.169 802.063 196.835C819.824 194.082 839.676 199.534 857.089 203.048C880.285 207.73 904.625 211.572 926.84 219.443C941.679 224.7 956.989 231.489 970.462 239.134C976.58 242.606 981.289 247.355 987.33 250.9C1004.38 260.905 1020.25 266.771 1039.82 270.916" stroke="#F8D20D" stroke-width="4" stroke-linecap="round"/>
</g>
<g style="mix-blend-mode:plus-lighter">
<path d="M23.1143 92.5002C50.7903 77.3663 77.0894 65.9375 110.88 62.9087C137.511 60.5216 164.932 63.7165 190.619 71.5996C268.48 95.4935 312.505 165.254 372.616 209.315C402.559 231.263 440.653 245.356 479.602 247.016C521.386 248.796 566.074 240.136 606.321 233.09C650.346 225.383 693.582 215.789 737.903 208.962C759.531 205.63 780.556 200.169 802.063 196.835C819.824 194.082 839.676 199.534 857.089 203.048C880.285 207.73 904.625 211.572 926.84 219.443C941.679 224.7 956.989 231.489 970.462 239.134C976.58 242.606 981.289 247.355 987.33 250.9C1004.38 260.905 1020.25 266.771 1039.82 270.916" stroke="#F8D20D" stroke-width="2" stroke-linecap="round"/>
</g>
</g>
<defs>
<filter id="filter0_f_1533_19333" x="7.33867" y="0.000782013" width="1100.07" height="205.148" filterUnits="userSpaceOnUse" color-interpolation-filters="sRGB">
<feFlood flood-opacity="0" result="BackgroundImageFix"/>
<feBlend mode="normal" in="SourceGraphic" in2="BackgroundImageFix" result="shape"/>
<feGaussianBlur stdDeviation="8.9" result="effect1_foregroundBlur_1533_19333"/>
</filter>
<filter id="filter1_f_1533_19333" x="-0.000391006" y="39.0475" width="1062.93" height="254.955" filterUnits="userSpaceOnUse" color-interpolation-filters="sRGB">
<feFlood flood-opacity="0" result="BackgroundImageFix"/>
<feBlend mode="normal" in="SourceGraphic" in2="BackgroundImageFix" result="shape"/>
<feGaussianBlur stdDeviation="10.55" result="effect1_foregroundBlur_1533_19333"/>
</filter>
</defs>
</svg>
