<svg width="256" height="162" viewBox="0 0 256 162" fill="none" xmlns="http://www.w3.org/2000/svg">
<rect width="256" height="162" rx="21" fill="black"/>
<g clip-path="url(#clip0_1356_17415)">
<path d="M0 104H256V141C256 152.598 246.598 162 235 162H21C9.40202 162 0 152.598 0 141V104Z" fill="#262628"/>
<path d="M77.4635 110.909C40.1577 110.332 32.6194 143.397 0 141.132V146.942H259V124.954C237.712 129.559 222.338 131.925 200.459 121.615C188.976 116.204 175.402 115.912 146.648 123.342C114.126 131.746 114.717 111.484 77.4635 110.909Z" fill="url(#paint0_linear_1356_17415)"/>
<path d="M0 141.132C32.6194 143.397 40.1577 110.332 77.4635 110.909C114.717 111.484 114.126 131.746 146.648 123.342C175.402 115.912 188.976 116.204 200.459 121.615C222.338 131.925 237.712 129.559 259 124.954" stroke="#F8D20D" stroke-width="3.06466" stroke-linecap="round"/>
<path d="M44.9406 128.055C33.7681 131.313 9.09886 130.811 0 131.656V142.976H259V139.803C229.799 139.803 219.79 128.527 205.189 128.527C190.589 128.527 182.719 135.642 158.475 135.144C136.005 134.682 122.613 128.473 102.299 122.248C81.9854 116.023 58.9063 123.982 44.9406 128.055Z" fill="url(#paint1_linear_1356_17415)"/>
<path d="M0 131.762C9.09886 130.909 33.7681 131.416 44.9406 128.128C58.9063 124.018 81.9854 115.988 102.299 122.269C122.613 128.55 136.005 134.816 158.475 135.282C182.719 135.785 190.589 128.605 205.19 128.605C219.79 128.605 229.799 139.983 259 139.983" stroke="#071FD7" stroke-width="3.06466" stroke-linecap="round"/>
<g clip-path="url(#clip1_1356_17415)">
<path d="M31 -18.9062V142.614" stroke="#5C5C5C" stroke-opacity="0.58" stroke-width="0.169286" stroke-linecap="round" stroke-dasharray="2.47 2.47"/>
<path d="M27.3764 145.613H28.444L30.9545 151.745H31.041L33.5515 145.613H34.6191V153H33.7823V147.388H33.7102L31.4017 153H30.5938L28.2853 147.388H28.2132V153H27.3764V145.613Z" fill="white"/>
<path d="M71.5 -18.9062V142.614" stroke="#5C5C5C" stroke-opacity="0.58" stroke-width="0.169286" stroke-linecap="round" stroke-dasharray="2.47 2.47"/>
<path d="M68.7321 146.407V145.613H74.2724V146.407H71.9495V153H71.055V146.407H68.7321Z" fill="white"/>
<path d="M112 -18.9062V142.614" stroke="#5C5C5C" stroke-opacity="0.58" stroke-width="0.169286" stroke-linecap="round" stroke-dasharray="2.47 2.47"/>
<path d="M109.416 153L107.396 145.613H108.305L109.848 151.629H109.921L111.493 145.613H112.503L114.076 151.629H114.148L115.692 145.613H116.601L114.581 153H113.657L112.027 147.113H111.969L110.339 153H109.416Z" fill="white"/>
<path d="M152.5 -18.9062V142.614" stroke="#5C5C5C" stroke-opacity="0.58" stroke-width="0.169286" stroke-linecap="round" stroke-dasharray="2.47 2.47"/>
<path d="M149.732 146.407V145.613H155.272V146.407H152.95V153H152.055V146.407H149.732Z" fill="white"/>
<path d="M191 -18.9062V142.614" stroke="#5C5C5C" stroke-opacity="0.58" stroke-width="0.169286" stroke-linecap="round" stroke-dasharray="2.47 2.47"/>
<path d="M188.914 153V145.613H193.343V146.407H189.808V148.903H193.011V149.696H189.808V153H188.914Z" fill="white"/>
<path d="M229.5 -18.9062V142.614" stroke="#5C5C5C" stroke-opacity="0.58" stroke-width="0.169286" stroke-linecap="round" stroke-dasharray="2.47 2.47"/>
<path d="M231.196 147.46C231.152 147.094 230.977 146.81 230.669 146.609C230.361 146.407 229.984 146.306 229.537 146.306C229.209 146.306 228.923 146.358 228.678 146.464C228.435 146.57 228.245 146.716 228.108 146.901C227.974 147.086 227.906 147.296 227.906 147.532C227.906 147.729 227.953 147.899 228.047 148.04C228.143 148.18 228.266 148.297 228.415 148.39C228.564 148.482 228.72 148.557 228.884 148.618C229.047 148.675 229.197 148.722 229.335 148.758L230.085 148.96C230.277 149.011 230.491 149.08 230.727 149.169C230.965 149.258 231.192 149.38 231.409 149.534C231.627 149.685 231.808 149.88 231.95 150.118C232.091 150.356 232.162 150.648 232.162 150.995C232.162 151.394 232.058 151.754 231.849 152.077C231.642 152.399 231.339 152.655 230.94 152.845C230.543 153.035 230.061 153.13 229.493 153.13C228.964 153.13 228.506 153.044 228.119 152.874C227.734 152.703 227.431 152.465 227.21 152.16C226.991 151.854 226.867 151.5 226.839 151.096H227.762C227.786 151.374 227.88 151.605 228.043 151.788C228.209 151.968 228.418 152.103 228.671 152.192C228.926 152.279 229.2 152.322 229.493 152.322C229.835 152.322 230.141 152.267 230.413 152.156C230.685 152.043 230.9 151.887 231.059 151.687C231.217 151.485 231.297 151.249 231.297 150.98C231.297 150.735 231.228 150.535 231.091 150.381C230.954 150.227 230.774 150.102 230.55 150.006C230.326 149.91 230.085 149.826 229.825 149.754L228.916 149.494C228.339 149.328 227.882 149.091 227.545 148.783C227.209 148.476 227.041 148.073 227.041 147.575C227.041 147.162 227.152 146.801 227.376 146.493C227.602 146.183 227.905 145.942 228.285 145.772C228.667 145.599 229.094 145.512 229.565 145.512C230.041 145.512 230.465 145.597 230.835 145.768C231.205 145.936 231.499 146.167 231.715 146.461C231.934 146.754 232.049 147.087 232.061 147.46H231.196Z" fill="white"/>
</g>
</g>
<g clip-path="url(#clip2_1356_17415)">
<mask id="mask0_1356_17415" style="mask-type:luminance" maskUnits="userSpaceOnUse" x="12" y="9" width="44" height="44">
<path d="M56 9H12V53H56V9Z" fill="white"/>
</mask>
<g mask="url(#mask0_1356_17415)">
<path d="M15.666 24.5837C15.666 18.167 19.3327 15.417 24.8327 15.417H43.166C48.666 15.417 52.3327 18.167 52.3327 24.5837V37.417C52.3327 43.8337 48.666 46.5837 43.166 46.5837H24.8327C19.3327 46.5837 15.666 43.8337 15.666 37.417V32.082" stroke="white" stroke-width="1.3" stroke-miterlimit="10" stroke-linecap="round" stroke-linejoin="round"/>
<path d="M23 23.667V38.3337" stroke="white" stroke-width="1.3" stroke-miterlimit="10" stroke-linecap="round" stroke-linejoin="round"/>
<path d="M28.5 23.667V31.0003" stroke="white" stroke-width="1.3" stroke-miterlimit="10" stroke-linecap="round" stroke-linejoin="round"/>
<path d="M28.5 36.5V38.3333" stroke="white" stroke-width="1.3" stroke-miterlimit="10" stroke-linecap="round" stroke-linejoin="round"/>
<path d="M39.5 23.667V25.5003" stroke="white" stroke-width="1.3" stroke-miterlimit="10" stroke-linecap="round" stroke-linejoin="round"/>
<path d="M34 23.667V38.3337" stroke="white" stroke-width="1.3" stroke-miterlimit="10" stroke-linecap="round" stroke-linejoin="round"/>
<path d="M39.5 31V38.3333" stroke="white" stroke-width="1.3" stroke-miterlimit="10" stroke-linecap="round" stroke-linejoin="round"/>
<path d="M45 23.667V38.3337" stroke="white" stroke-width="1.3" stroke-miterlimit="10" stroke-linecap="round" stroke-linejoin="round"/>
</g>
</g>
<path d="M238.43 24.9297L244.5 30.9997L238.43 37.0697" stroke="white" stroke-miterlimit="10" stroke-linecap="round" stroke-linejoin="round"/>
<path d="M227.5 31H244.33" stroke="white" stroke-miterlimit="10" stroke-linecap="round" stroke-linejoin="round"/>
<path d="M19.068 59.2H21.984L28.092 76H25.452L24.288 72.808H16.764L15.612 76H12.96L19.068 59.2ZM17.688 70.312H23.364L20.52 62.512L17.688 70.312ZM30.1978 76V58H32.6938V76H30.1978ZM35.565 76V58H38.061V76H35.565ZM46.6978 76V59.2H52.4818C53.3858 59.2 54.2018 59.424 54.9298 59.872C55.6658 60.32 56.2498 60.924 56.6818 61.684C57.1218 62.444 57.3418 63.284 57.3418 64.204C57.3418 65.14 57.1178 65.988 56.6698 66.748C56.2298 67.5 55.6418 68.1 54.9058 68.548C54.1698 68.996 53.3618 69.22 52.4818 69.22H49.1938V76H46.6978ZM49.1938 66.724H52.2298C52.7098 66.724 53.1458 66.604 53.5378 66.364C53.9378 66.124 54.2538 65.804 54.4858 65.404C54.7258 65.004 54.8458 64.552 54.8458 64.048C54.8458 63.544 54.7258 63.092 54.4858 62.692C54.2538 62.284 53.9378 61.964 53.5378 61.732C53.1458 61.492 52.7098 61.372 52.2298 61.372H49.1938V66.724ZM59.3072 76V64H61.8032V65.272C62.2192 64.776 62.7312 64.384 63.3392 64.096C63.9472 63.808 64.6032 63.664 65.3072 63.664C65.7552 63.664 66.1992 63.724 66.6392 63.844L65.6432 66.364C65.3312 66.244 65.0192 66.184 64.7072 66.184C64.1792 66.184 63.6952 66.316 63.2552 66.58C62.8152 66.836 62.4632 67.184 62.1992 67.624C61.9352 68.064 61.8032 68.552 61.8032 69.088V76H59.3072ZM72.7434 76.312C71.6394 76.312 70.6314 76.028 69.7194 75.46C68.8154 74.892 68.0914 74.132 67.5474 73.18C67.0114 72.22 66.7434 71.16 66.7434 70C66.7434 69.12 66.8994 68.3 67.2114 67.54C67.5234 66.772 67.9514 66.1 68.4954 65.524C69.0474 64.94 69.6874 64.484 70.4154 64.156C71.1434 63.828 71.9194 63.664 72.7434 63.664C73.8474 63.664 74.8514 63.948 75.7554 64.516C76.6674 65.084 77.3914 65.848 77.9274 66.808C78.4714 67.768 78.7434 68.832 78.7434 70C78.7434 70.872 78.5874 71.688 78.2754 72.448C77.9634 73.208 77.5314 73.88 76.9794 74.464C76.4354 75.04 75.7994 75.492 75.0714 75.82C74.3514 76.148 73.5754 76.312 72.7434 76.312ZM72.7434 73.816C73.4074 73.816 74.0034 73.64 74.5314 73.288C75.0594 72.936 75.4754 72.472 75.7794 71.896C76.0914 71.312 76.2474 70.68 76.2474 70C76.2474 69.304 76.0874 68.664 75.7674 68.08C75.4554 67.496 75.0354 67.032 74.5074 66.688C73.9794 66.336 73.3914 66.16 72.7434 66.16C72.0874 66.16 71.4914 66.336 70.9554 66.688C70.4274 67.04 70.0074 67.508 69.6954 68.092C69.3914 68.676 69.2394 69.312 69.2394 70C69.2394 70.712 69.3994 71.356 69.7194 71.932C70.0394 72.508 70.4634 72.968 70.9914 73.312C71.5274 73.648 72.1114 73.816 72.7434 73.816ZM78.3525 82V79.504C78.8565 79.504 79.3085 79.388 79.7085 79.156C80.1165 78.932 80.4365 78.62 80.6685 78.22C80.9085 77.82 81.0285 77.376 81.0285 76.888V64H83.5245V76.888C83.5245 77.824 83.2965 78.68 82.8405 79.456C82.3845 80.232 81.7645 80.848 80.9805 81.304C80.2045 81.768 79.3285 82 78.3525 82ZM82.3005 62.26C81.9165 62.26 81.5965 62.136 81.3405 61.888C81.0845 61.64 80.9565 61.328 80.9565 60.952C80.9565 60.584 81.0845 60.276 81.3405 60.028C81.5965 59.772 81.9125 59.644 82.2885 59.644C82.6565 59.644 82.9685 59.772 83.2245 60.028C83.4805 60.276 83.6085 60.584 83.6085 60.952C83.6085 61.328 83.4805 61.64 83.2245 61.888C82.9765 62.136 82.6685 62.26 82.3005 62.26ZM91.47 76.312C90.366 76.312 89.358 76.028 88.446 75.46C87.542 74.892 86.818 74.132 86.274 73.18C85.738 72.22 85.47 71.16 85.47 70C85.47 69.12 85.626 68.3 85.938 67.54C86.25 66.772 86.678 66.1 87.222 65.524C87.774 64.94 88.414 64.484 89.142 64.156C89.87 63.828 90.646 63.664 91.47 63.664C92.39 63.664 93.234 63.856 94.002 64.24C94.77 64.616 95.426 65.14 95.97 65.812C96.514 66.476 96.914 67.244 97.17 68.116C97.426 68.98 97.502 69.9 97.398 70.876H88.146C88.25 71.428 88.45 71.928 88.746 72.376C89.05 72.816 89.434 73.164 89.898 73.42C90.37 73.676 90.894 73.808 91.47 73.816C92.078 73.816 92.63 73.664 93.126 73.36C93.63 73.056 94.042 72.636 94.362 72.1L96.894 72.688C96.414 73.752 95.69 74.624 94.722 75.304C93.754 75.976 92.67 76.312 91.47 76.312ZM88.062 68.968H94.878C94.798 68.392 94.594 67.872 94.266 67.408C93.946 66.936 93.542 66.564 93.054 66.292C92.574 66.012 92.046 65.872 91.47 65.872C90.902 65.872 90.374 66.008 89.886 66.28C89.406 66.552 89.006 66.924 88.686 67.396C88.374 67.86 88.166 68.384 88.062 68.968ZM107.198 72.592L109.43 73.804C108.886 74.564 108.194 75.172 107.354 75.628C106.522 76.084 105.618 76.312 104.642 76.312C103.538 76.312 102.53 76.028 101.618 75.46C100.714 74.892 99.9899 74.132 99.4459 73.18C98.9099 72.22 98.6419 71.16 98.6419 70C98.6419 69.12 98.7979 68.3 99.1099 67.54C99.4219 66.772 99.8499 66.1 100.394 65.524C100.946 64.94 101.586 64.484 102.314 64.156C103.042 63.828 103.818 63.664 104.642 63.664C105.618 63.664 106.522 63.892 107.354 64.348C108.194 64.804 108.886 65.416 109.43 66.184L107.198 67.396C106.862 66.996 106.47 66.692 106.022 66.484C105.574 66.268 105.114 66.16 104.642 66.16C103.986 66.16 103.39 66.34 102.854 66.7C102.326 67.052 101.906 67.52 101.594 68.104C101.29 68.68 101.138 69.312 101.138 70C101.138 70.68 101.294 71.312 101.606 71.896C101.918 72.472 102.338 72.936 102.866 73.288C103.402 73.64 103.994 73.816 104.642 73.816C105.138 73.816 105.61 73.704 106.058 73.48C106.506 73.256 106.886 72.96 107.198 72.592ZM117.932 66.496H115.412L115.4 76H112.904L112.916 66.496H111.008V64H112.916L112.904 60.232H115.4L115.412 64H117.932V66.496ZM123.517 76.228C122.885 76.188 122.269 76.06 121.669 75.844C121.069 75.628 120.541 75.336 120.085 74.968C119.637 74.592 119.301 74.152 119.077 73.648L121.201 72.736C121.305 72.952 121.485 73.164 121.741 73.372C122.005 73.58 122.313 73.752 122.665 73.888C123.017 74.016 123.385 74.08 123.769 74.08C124.145 74.08 124.493 74.028 124.813 73.924C125.141 73.812 125.409 73.644 125.617 73.42C125.825 73.196 125.929 72.928 125.929 72.616C125.929 72.264 125.809 71.992 125.569 71.8C125.337 71.6 125.045 71.448 124.693 71.344C124.341 71.24 123.989 71.14 123.637 71.044C122.853 70.868 122.133 70.628 121.477 70.324C120.829 70.012 120.313 69.616 119.929 69.136C119.545 68.648 119.353 68.052 119.353 67.348C119.353 66.58 119.561 65.916 119.977 65.356C120.393 64.788 120.937 64.352 121.609 64.048C122.289 63.744 123.013 63.592 123.781 63.592C124.741 63.592 125.621 63.796 126.421 64.204C127.221 64.612 127.833 65.172 128.257 65.884L126.277 67.06C126.157 66.82 125.977 66.604 125.737 66.412C125.497 66.22 125.225 66.068 124.921 65.956C124.617 65.836 124.301 65.768 123.973 65.752C123.565 65.736 123.185 65.784 122.833 65.896C122.489 66 122.213 66.168 122.005 66.4C121.797 66.632 121.693 66.928 121.693 67.288C121.693 67.64 121.817 67.904 122.065 68.08C122.313 68.248 122.625 68.384 123.001 68.488C123.385 68.592 123.777 68.708 124.177 68.836C124.889 69.06 125.557 69.336 126.181 69.664C126.805 69.984 127.309 70.38 127.693 70.852C128.077 71.324 128.261 71.9 128.245 72.58C128.245 73.332 128.017 73.992 127.561 74.56C127.113 75.128 126.529 75.56 125.809 75.856C125.089 76.152 124.325 76.276 123.517 76.228Z" fill="white"/>
<path d="M15.192 95.156C14.664 95.156 14.18 95.026 13.74 94.766C13.304 94.502 12.954 94.15 12.69 93.71C12.43 93.27 12.3 92.784 12.3 92.252C12.3 91.944 12.336 91.682 12.408 91.466C12.48 91.246 12.586 91.002 12.726 90.734L15.108 86.6H16.086L14.34 89.624C14.692 89.488 15.046 89.428 15.402 89.444C15.758 89.456 16.098 89.534 16.422 89.678C16.746 89.822 17.034 90.02 17.286 90.272C17.538 90.52 17.736 90.812 17.88 91.148C18.028 91.484 18.102 91.852 18.102 92.252C18.102 92.652 18.026 93.028 17.874 93.38C17.722 93.728 17.512 94.036 17.244 94.304C16.98 94.568 16.672 94.776 16.32 94.928C15.968 95.08 15.592 95.156 15.192 95.156ZM15.192 94.316C15.592 94.316 15.948 94.22 16.26 94.028C16.572 93.832 16.816 93.576 16.992 93.26C17.172 92.944 17.262 92.606 17.262 92.246C17.262 91.87 17.17 91.528 16.986 91.22C16.802 90.908 16.554 90.66 16.242 90.476C15.93 90.288 15.584 90.194 15.204 90.194C14.812 90.194 14.46 90.29 14.148 90.482C13.836 90.674 13.59 90.926 13.41 91.238C13.23 91.546 13.14 91.882 13.14 92.246C13.14 92.638 13.234 92.99 13.422 93.302C13.614 93.614 13.866 93.862 14.178 94.046C14.49 94.226 14.828 94.316 15.192 94.316ZM22.0598 95V86.6H24.7478C25.1958 86.6 25.5998 86.71 25.9598 86.93C26.3198 87.146 26.6058 87.44 26.8178 87.812C27.0338 88.18 27.1418 88.594 27.1418 89.054C27.1418 89.518 27.0318 89.936 26.8118 90.308C26.5958 90.68 26.3058 90.974 25.9418 91.19C25.5818 91.406 25.1838 91.514 24.7478 91.514H22.8998V95H22.0598ZM22.8998 90.674H24.6818C24.9778 90.674 25.2478 90.602 25.4918 90.458C25.7398 90.31 25.9358 90.112 26.0798 89.864C26.2278 89.612 26.3018 89.328 26.3018 89.012C26.3018 88.696 26.2278 88.414 26.0798 88.166C25.9358 87.914 25.7398 87.716 25.4918 87.572C25.2478 87.424 24.9778 87.35 24.6818 87.35H22.8998V90.674ZM28.2239 95V89H29.0639V89.828C29.2759 89.524 29.5519 89.282 29.8919 89.102C30.2319 88.922 30.6019 88.832 31.0019 88.832C31.2339 88.832 31.4579 88.862 31.6739 88.922L31.3319 89.756C31.1639 89.704 30.9999 89.678 30.8399 89.678C30.5159 89.678 30.2179 89.758 29.9459 89.918C29.6779 90.078 29.4639 90.292 29.3039 90.56C29.1439 90.828 29.0639 91.126 29.0639 91.454V95H28.2239ZM34.7545 95.156C34.2025 95.156 33.6985 95.014 33.2425 94.73C32.7905 94.446 32.4285 94.066 32.1565 93.59C31.8885 93.11 31.7545 92.58 31.7545 92C31.7545 91.56 31.8325 91.15 31.9885 90.77C32.1445 90.386 32.3585 90.05 32.6305 89.762C32.9065 89.47 33.2265 89.242 33.5905 89.078C33.9545 88.914 34.3425 88.832 34.7545 88.832C35.3065 88.832 35.8085 88.974 36.2605 89.258C36.7165 89.542 37.0785 89.924 37.3465 90.404C37.6185 90.884 37.7545 91.416 37.7545 92C37.7545 92.436 37.6765 92.844 37.5205 93.224C37.3645 93.604 37.1485 93.94 36.8725 94.232C36.6005 94.52 36.2825 94.746 35.9185 94.91C35.5585 95.074 35.1705 95.156 34.7545 95.156ZM34.7545 94.316C35.1625 94.316 35.5285 94.21 35.8525 93.998C36.1805 93.782 36.4385 93.498 36.6265 93.146C36.8185 92.794 36.9145 92.412 36.9145 92C36.9145 91.58 36.8185 91.194 36.6265 90.842C36.4345 90.486 36.1745 90.202 35.8465 89.99C35.5225 89.778 35.1585 89.672 34.7545 89.672C34.3465 89.672 33.9785 89.78 33.6505 89.996C33.3265 90.208 33.0685 90.49 32.8765 90.842C32.6885 91.194 32.5945 91.58 32.5945 92C32.5945 92.432 32.6925 92.824 32.8885 93.176C33.0845 93.524 33.3465 93.802 33.6745 94.01C34.0025 94.214 34.3625 94.316 34.7545 94.316ZM37.5122 98V97.16C37.8122 97.16 38.0802 97.094 38.3162 96.962C38.5522 96.83 38.7382 96.648 38.8742 96.416C39.0102 96.188 39.0782 95.932 39.0782 95.648V89H39.9182V95.648C39.9182 96.08 39.8122 96.474 39.6002 96.83C39.3922 97.186 39.1062 97.47 38.7422 97.682C38.3822 97.894 37.9722 98 37.5122 98ZM39.5042 87.95C39.3682 87.95 39.2522 87.906 39.1562 87.818C39.0642 87.726 39.0182 87.612 39.0182 87.476C39.0182 87.34 39.0642 87.228 39.1562 87.14C39.2522 87.048 39.3682 87.002 39.5042 87.002C39.6362 87.002 39.7482 87.048 39.8402 87.14C39.9362 87.228 39.9842 87.34 39.9842 87.476C39.9842 87.612 39.9382 87.726 39.8462 87.818C39.7542 87.906 39.6402 87.95 39.5042 87.95ZM43.942 95.156C43.39 95.156 42.886 95.014 42.43 94.73C41.978 94.446 41.616 94.066 41.344 93.59C41.076 93.11 40.942 92.58 40.942 92C40.942 91.56 41.02 91.15 41.176 90.77C41.332 90.386 41.546 90.05 41.818 89.762C42.094 89.47 42.414 89.242 42.778 89.078C43.142 88.914 43.53 88.832 43.942 88.832C44.386 88.832 44.794 88.92 45.166 89.096C45.542 89.272 45.864 89.518 46.132 89.834C46.404 90.15 46.608 90.52 46.744 90.944C46.884 91.368 46.942 91.826 46.918 92.318H41.83C41.878 92.698 41.998 93.038 42.19 93.338C42.386 93.638 42.634 93.876 42.934 94.052C43.238 94.224 43.574 94.312 43.942 94.316C44.342 94.316 44.702 94.212 45.022 94.004C45.346 93.796 45.606 93.51 45.802 93.146L46.654 93.344C46.414 93.876 46.052 94.312 45.568 94.652C45.084 94.988 44.542 95.156 43.942 95.156ZM41.806 91.64H46.072C46.044 91.268 45.93 90.928 45.73 90.62C45.534 90.308 45.28 90.06 44.968 89.876C44.656 89.688 44.314 89.594 43.942 89.594C43.57 89.594 43.23 89.686 42.922 89.87C42.614 90.05 42.362 90.296 42.166 90.608C41.97 90.916 41.85 91.26 41.806 91.64ZM52.172 93.494L52.922 93.902C52.65 94.282 52.304 94.586 51.884 94.814C51.468 95.042 51.016 95.156 50.528 95.156C49.976 95.156 49.472 95.014 49.016 94.73C48.564 94.446 48.202 94.066 47.93 93.59C47.662 93.11 47.528 92.58 47.528 92C47.528 91.56 47.606 91.15 47.762 90.77C47.918 90.386 48.132 90.05 48.404 89.762C48.68 89.47 49 89.242 49.364 89.078C49.728 88.914 50.116 88.832 50.528 88.832C51.016 88.832 51.468 88.946 51.884 89.174C52.304 89.402 52.65 89.708 52.922 90.092L52.172 90.494C51.964 90.23 51.714 90.028 51.422 89.888C51.13 89.744 50.832 89.672 50.528 89.672C50.124 89.672 49.758 89.78 49.43 89.996C49.102 90.208 48.842 90.49 48.65 90.842C48.462 91.194 48.368 91.58 48.368 92C48.368 92.42 48.464 92.806 48.656 93.158C48.852 93.51 49.114 93.792 49.442 94.004C49.77 94.212 50.132 94.316 50.528 94.316C50.856 94.316 51.164 94.24 51.452 94.088C51.74 93.936 51.98 93.738 52.172 93.494ZM57.0712 89.84H55.6372L55.6312 95H54.7912L54.7972 89.84H53.7112V89H54.7972L54.7912 87.116H55.6312L55.6372 89H57.0712V89.84ZM59.949 95.114C59.621 95.106 59.301 95.046 58.989 94.934C58.677 94.822 58.405 94.67 58.173 94.478C57.941 94.286 57.775 94.068 57.675 93.824L58.401 93.512C58.465 93.668 58.583 93.812 58.755 93.944C58.931 94.072 59.131 94.176 59.355 94.256C59.579 94.332 59.801 94.37 60.021 94.37C60.265 94.37 60.493 94.33 60.705 94.25C60.917 94.17 61.089 94.056 61.221 93.908C61.357 93.756 61.425 93.578 61.425 93.374C61.425 93.154 61.353 92.982 61.209 92.858C61.065 92.73 60.883 92.63 60.663 92.558C60.443 92.482 60.217 92.41 59.985 92.342C59.561 92.226 59.187 92.098 58.863 91.958C58.539 91.818 58.285 91.64 58.101 91.424C57.921 91.204 57.831 90.922 57.831 90.578C57.831 90.214 57.933 89.9 58.137 89.636C58.345 89.368 58.615 89.162 58.947 89.018C59.283 88.87 59.641 88.796 60.021 88.796C60.509 88.796 60.953 88.902 61.353 89.114C61.757 89.326 62.049 89.608 62.229 89.96L61.551 90.362C61.479 90.198 61.365 90.056 61.209 89.936C61.053 89.816 60.875 89.722 60.675 89.654C60.479 89.586 60.279 89.55 60.075 89.546C59.819 89.542 59.581 89.58 59.361 89.66C59.141 89.736 58.963 89.85 58.827 90.002C58.695 90.154 58.629 90.34 58.629 90.56C58.629 90.78 58.695 90.948 58.827 91.064C58.959 91.176 59.137 91.268 59.361 91.34C59.589 91.408 59.845 91.488 60.129 91.58C60.493 91.696 60.835 91.828 61.155 91.976C61.475 92.124 61.733 92.308 61.929 92.528C62.125 92.748 62.221 93.026 62.217 93.362C62.217 93.722 62.109 94.036 61.893 94.304C61.677 94.572 61.397 94.778 61.053 94.922C60.709 95.062 60.341 95.126 59.949 95.114Z" fill="#C7C8C9"/>
<defs>
<linearGradient id="paint0_linear_1356_17415" x1="129.5" y1="110.901" x2="129.5" y2="146.942" gradientUnits="userSpaceOnUse">
<stop stop-color="#F8D20D"/>
<stop offset="0.934015" stop-color="#F8D20D" stop-opacity="0"/>
</linearGradient>
<linearGradient id="paint1_linear_1356_17415" x1="129.5" y1="120.328" x2="129.5" y2="142.976" gradientUnits="userSpaceOnUse">
<stop stop-color="#071FD7"/>
<stop offset="0.89994" stop-color="#071FD7" stop-opacity="0"/>
</linearGradient>
<clipPath id="clip0_1356_17415">
<path d="M0 104H256V141C256 152.598 246.598 162 235 162H21C9.40202 162 0 152.598 0 141V104Z" fill="white"/>
</clipPath>
<clipPath id="clip1_1356_17415">
<rect width="256" height="105" fill="white" transform="translate(0 48)"/>
</clipPath>
<clipPath id="clip2_1356_17415">
<rect width="44" height="44" fill="white" transform="translate(12 9)"/>
</clipPath>
</defs>
</svg>
