<svg width="137" height="137" viewBox="0 0 137 137" fill="none" xmlns="http://www.w3.org/2000/svg">
<path d="M68.4994 11.416C37.0464 11.416 11.416 37.0464 11.416 68.4994C11.416 99.9523 37.0464 125.583 68.4994 125.583C99.9523 125.583 125.583 99.9523 125.583 68.4994C125.583 37.0464 99.9523 11.416 68.4994 11.416ZM87.6794 81.6285C89.3348 83.2839 89.3348 86.0239 87.6794 87.6794C86.8231 88.5356 85.7385 88.9352 84.6539 88.9352C83.5694 88.9352 82.4848 88.5356 81.6285 87.6794L68.4994 74.5502L55.3702 87.6794C54.5139 88.5356 53.4294 88.9352 52.3448 88.9352C51.2602 88.9352 50.1756 88.5356 49.3194 87.6794C47.6639 86.0239 47.6639 83.2839 49.3194 81.6285L62.4485 68.4994L49.3194 55.3702C47.6639 53.7148 47.6639 50.9748 49.3194 49.3194C50.9748 47.6639 53.7148 47.6639 55.3702 49.3194L68.4994 62.4485L81.6285 49.3194C83.2839 47.6639 86.0239 47.6639 87.6794 49.3194C89.3348 50.9748 89.3348 53.7148 87.6794 55.3702L74.5502 68.4994L87.6794 81.6285Z" fill="#EE5D50"/>
</svg>
