<svg width="137" height="137" viewBox="0 0 137 137" fill="none" xmlns="http://www.w3.org/2000/svg">
<path d="M68.4993 11.416C37.0464 11.416 11.416 37.0464 11.416 68.4993C11.416 99.9523 37.0464 125.583 68.4993 125.583C99.9523 125.583 125.583 99.9523 125.583 68.4993C125.583 37.0464 99.9523 11.416 68.4993 11.416ZM95.7852 55.3702L63.4189 87.7364C62.6198 88.5356 61.5352 88.9923 60.3935 88.9923C59.2518 88.9923 58.1673 88.5356 57.3681 87.7364L41.2135 71.5818C39.5581 69.9264 39.5581 67.1864 41.2135 65.531C42.8689 63.8756 45.6089 63.8756 47.2643 65.531L60.3935 78.6602L89.7343 49.3193C91.3898 47.6639 94.1298 47.6639 95.7852 49.3193C97.4406 50.9748 97.4406 53.6577 95.7852 55.3702Z" fill="#05CD99"/>
</svg>
